# xmcd CD Database Entry
#
# Track frame offsets:
# 182
# 23430
# 41350
# 63012
# 88772
# 112857
# 145345
# 164847
# 185625
# 201525
# 226102
# 246077
# 267540
#
# Disc length: 3882 seconds
#
# Revision: 10
# Processed by: cddbd v1.4PL0 Copyright (c) Steve Scherf et al.
# Submitted via: tcd 2.0b
#
DISCID=b10f280d
DTITLE=The Christians - The Best Of The Christians
DYEAR=1900
DGENRE=
TTITLE0=Forgotten Town
TTITLE1=Harvest for the world
TTITLE2=Perfect moment
TTITLE3=What's in a word
TTITLE4=Born again
TTITLE5=Words
TTITLE6=Ideal world
TTITLE7=The bottle
TTITLE8=When the fingers point
TTITLE9=Father
TTITLE10=Greenbank drive
TTITLE11=Hooverville (and they promised us the world)
TTITLE12=Small axe
EXTD=
EXTT0=\n
EXTT1=
EXTT2=
EXTT3=
EXTT4=
EXTT5=
EXTT6=
EXTT7=
EXTT8=
EXTT9=
EXTT10=
EXTT11=
EXTT12=
PLAYORDER=
